<svg width="19" height="19" viewBox="0 0 19 19" fill="none" xmlns="http://www.w3.org/2000/svg">
<path opacity="0.5" d="M2 12.75C2 10.6287 2 9.56802 2.65901 8.90901C3.31802 8.25 4.37868 8.25 6.5 8.25H12.5C14.6213 8.25 15.682 8.25 16.341 8.90901C17 9.56802 17 10.6287 17 12.75C17 14.8713 17 15.932 16.341 16.591C15.682 17.25 14.6213 17.25 12.5 17.25H6.5C4.37868 17.25 3.31802 17.25 2.65901 16.591C2 15.932 2 14.8713 2 12.75Z" fill="#888EA8"/>
<path d="M6.5 13.5C6.91421 13.5 7.25 13.1642 7.25 12.75C7.25 12.3358 6.91421 12 6.5 12C6.08579 12 5.75 12.3358 5.75 12.75C5.75 13.1642 6.08579 13.5 6.5 13.5Z" fill="#888EA8"/>
<path d="M9.5 13.5C9.91421 13.5 10.25 13.1642 10.25 12.75C10.25 12.3358 9.91421 12 9.5 12C9.08579 12 8.75 12.3358 8.75 12.75C8.75 13.1642 9.08579 13.5 9.5 13.5Z" fill="#888EA8"/>
<path d="M13.25 12.75C13.25 13.1642 12.9142 13.5 12.5 13.5C12.0858 13.5 11.75 13.1642 11.75 12.75C11.75 12.3358 12.0858 12 12.5 12C12.9142 12 13.25 12.3358 13.25 12.75Z" fill="#888EA8"/>
<path d="M5.5625 6.75C5.5625 4.57538 7.32538 2.8125 9.5 2.8125C11.6746 2.8125 13.4375 4.57538 13.4375 6.75V8.25268C13.863 8.25665 14.2351 8.26651 14.5625 8.29096V6.75C14.5625 3.95406 12.2959 1.6875 9.5 1.6875C6.70406 1.6875 4.4375 3.95406 4.4375 6.75V8.29096C4.76488 8.26651 5.13698 8.25665 5.5625 8.25268V6.75Z" fill="#888EA8"/>
</svg>
