<svg width="20" height="20" viewBox="0 0 20 20" fill="none" xmlns="http://www.w3.org/2000/svg">
<path opacity="0.5" d="M1.66663 10C1.66663 5.39765 5.39758 1.66669 9.99996 1.66669C14.6023 1.66669 18.3333 5.39765 18.3333 10C18.3333 14.6024 14.6023 18.3334 9.99996 18.3334C5.39758 18.3334 1.66663 14.6024 1.66663 10Z" fill="#C3C6D3"/>
<path fill-rule="evenodd" clip-rule="evenodd" d="M10 5.625C7.58375 5.625 5.625 7.58375 5.625 10C5.625 12.4162 7.58375 14.375 10 14.375C10.3452 14.375 10.625 14.6548 10.625 15C10.625 15.3452 10.3452 15.625 10 15.625C6.8934 15.625 4.375 13.1066 4.375 10C4.375 6.8934 6.8934 4.375 10 4.375C13.1066 4.375 15.625 6.8934 15.625 10C15.625 10.6753 15.5058 11.3241 15.2866 11.9257C15.1758 12.2297 14.9879 12.4777 14.7795 12.67L14.7123 12.7319C14.0376 13.3543 13.0245 13.4342 12.2606 12.9249C11.9526 12.7196 11.7131 12.4361 11.5612 12.1104C11.1249 12.4338 10.5847 12.625 10 12.625C8.55025 12.625 7.375 11.4497 7.375 10C7.375 8.55025 8.55025 7.375 10 7.375C11.4497 7.375 12.625 8.55025 12.625 10V11.2701C12.625 11.5172 12.7484 11.7478 12.954 11.8848C13.2378 12.074 13.6141 12.0444 13.8647 11.8132L13.9319 11.7512C14.0246 11.6657 14.0826 11.5787 14.1121 11.4978C14.282 11.0313 14.375 10.5272 14.375 10C14.375 7.58375 12.4162 5.625 10 5.625ZM10 8.625C10.7594 8.625 11.375 9.24058 11.375 10C11.375 10.7594 10.7594 11.375 10 11.375C9.24058 11.375 8.625 10.7594 8.625 10C8.625 9.24058 9.24058 8.625 10 8.625Z" fill="#888EA8"/>
</svg>
